<?xml version="1.0" standalone="no"?>
<!DOCTYPE svg PUBLIC "-//W3C//DTD SVG 20010904//EN"
 "http://www.w3.org/TR/2001/REC-SVG-20010904/DTD/svg10.dtd">
<svg version="1.0" xmlns="http://www.w3.org/2000/svg"
 width="2000.000000pt" height="1550.000000pt" viewBox="0 0 2000.000000 1550.000000"
 preserveAspectRatio="xMidYMid meet">

<g transform="translate(0.000000,1550.000000) scale(0.100000,-0.100000)"
fill="#000000" stroke="none">
<path d="M2730 10265 l0 -1655 270 0 270 0 2 938 3 937 773 3 772 2 0 -940 0
-940 265 0 265 0 0 1655 0 1655 -265 0 -265 0 0 -455 0 -455 -775 0 -775 0 0
455 0 455 -270 0 -270 0 0 -1655z"/>
<path d="M9131 11902 c-5 -10 -327 -746 -716 -1637 -389 -891 -711 -1628 -716
-1637 -9 -17 8 -18 303 -18 l313 0 180 450 180 450 671 0 671 0 183 -450 183
-450 308 0 c170 0 309 2 309 3 0 2 -315 746 -699 1653 l-699 1649 -231 3
c-213 2 -231 1 -240 -16z m445 -1309 c112 -277 204 -505 204 -508 0 -3 -196
-5 -436 -5 -411 0 -436 1 -429 18 3 9 101 252 217 540 l211 523 14 -33 c8 -18
106 -259 219 -535z"/>
<path d="M13440 10265 l0 -1655 270 0 270 0 1 618 c1 339 5 880 8 1201 l6 585
475 -1140 476 -1139 219 0 219 0 460 1132 c254 622 464 1135 469 1139 4 4 7
-533 7 -1194 l0 -1202 270 0 270 0 0 1655 0 1655 -397 0 -398 0 -454 -1205
c-250 -663 -457 -1205 -461 -1205 -4 0 -225 542 -491 1205 l-484 1205 -367 0
-368 0 0 -1655z"/>
<path d="M2740 7165 l0 -545 690 0 690 0 0 -360 0 -360 -690 0 -690 0 0 -545
0 -545 7130 0 7130 0 0 545 0 545 -690 0 -690 0 0 315 0 315 690 0 690 0 0
545 0 545 -2025 0 -2025 0 0 -545 0 -545 690 0 690 0 0 -325 0 -325 -4460 0
-4460 0 0 370 0 370 690 0 690 0 0 545 0 545 -2025 0 -2025 0 0 -545z m3860 0
l0 -355 -690 0 -690 0 0 -550 0 -550 690 0 690 0 0 -355 0 -355 -1835 0 -1835
0 0 355 0 355 690 0 690 0 0 550 0 550 -690 0 -690 0 0 355 0 355 1835 0 1835
0 0 -355z m10210 -90 l0 -355 -690 0 -690 0 0 -505 0 -505 690 0 690 0 0 -355
0 -355 -1835 0 -1835 0 0 355 0 355 690 0 690 0 0 505 0 505 -690 0 -690 0 0
355 0 355 1835 0 1835 0 0 -355z m-7040 -1720 l0 -355 -1490 0 -1490 0 0 355
0 355 1490 0 1490 0 0 -355z m3180 0 l0 -355 -1490 0 -1490 0 0 355 0 355
1490 0 1490 0 0 -355z"/>
<path d="M8226 4008 c-92 -25 -157 -138 -141 -246 9 -60 26 -92 69 -130 45
-39 103 -55 181 -50 122 8 196 78 203 192 5 79 -10 127 -55 177 -55 61 -157
83 -257 57z m148 -80 c36 -16 56 -51 63 -107 12 -102 -35 -161 -127 -161 -46
0 -56 4 -86 34 -34 34 -39 54 -34 131 3 39 24 80 52 99 26 19 96 21 132 4z"/>
<path d="M11645 4005 c-101 -36 -111 -156 -16 -204 21 -11 69 -27 106 -36 75
-17 95 -29 95 -55 0 -66 -142 -74 -178 -9 -15 26 -21 28 -52 23 -52 -9 -58
-19 -35 -62 31 -58 92 -84 185 -80 41 2 88 10 105 18 37 19 75 75 75 111 0 72
-47 111 -174 145 -85 22 -109 41 -87 68 21 25 116 22 134 -4 12 -17 21 -20 56
-14 51 8 58 18 36 50 -37 57 -160 81 -250 49z"/>
<path d="M3010 3800 l0 -210 45 0 45 0 0 110 0 110 90 0 90 0 0 -110 0 -110
50 0 50 0 0 210 0 210 -50 0 -50 0 0 -60 0 -60 -90 0 -90 0 0 60 0 60 -45 0
-45 0 0 -210z"/>
<path d="M4827 3998 c-3 -7 -40 -92 -82 -188 -42 -96 -81 -185 -86 -197 -8
-22 -6 -23 44 -23 l53 0 15 43 16 42 95 3 96 3 18 -46 19 -45 53 0 c28 0 52 3
52 6 0 3 -41 98 -92 210 l-91 204 -53 0 c-32 0 -54 -5 -57 -12z m87 -167 c14
-36 26 -66 26 -68 0 -2 -25 -3 -55 -3 -30 0 -55 4 -55 9 0 5 7 26 16 47 9 22
20 50 25 63 12 29 11 30 43 -48z"/>
<path d="M6390 3800 l0 -210 45 0 44 0 3 129 3 129 88 -129 88 -129 50 0 49 0
0 210 0 210 -45 0 -44 0 -3 -135 -3 -135 -90 135 -90 134 -47 1 -48 0 0 -210z"/>
<path d="M9850 3800 l0 -210 50 0 50 0 0 63 c0 59 2 65 31 86 17 13 34 19 38
15 4 -5 36 -44 70 -86 l62 -78 60 0 c32 0 59 2 59 5 0 3 -43 55 -97 117 l-96
112 97 93 96 93 -67 0 -68 0 -92 -92 -93 -93 0 93 0 92 -50 0 -50 0 0 -210z"/>
<path d="M13210 3975 l0 -35 70 0 70 0 0 -175 0 -175 50 0 50 0 0 175 0 175
65 0 65 0 0 35 0 35 -185 0 -185 0 0 -35z"/>
<path d="M14996 4002 c-8 -13 -176 -402 -176 -407 0 -3 23 -5 50 -5 51 0 51 0
70 45 l19 45 94 0 94 0 17 -45 18 -45 55 0 c30 0 53 4 51 8 -1 5 -43 99 -93
210 l-90 202 -52 0 c-28 0 -54 -4 -57 -8z m114 -239 c0 -2 -27 -3 -60 -3 l-60
0 21 51 c39 100 38 100 70 23 16 -38 29 -70 29 -71z"/>
<path d="M16500 4006 c0 -3 36 -56 80 -119 l80 -115 0 -91 0 -91 50 0 50 0 0
89 c0 70 4 93 18 112 10 13 49 68 86 122 l67 97 -55 0 -56 0 -47 -72 c-25 -40
-49 -77 -53 -81 -4 -5 -30 28 -58 72 l-52 81 -55 0 c-30 0 -55 -2 -55 -4z"/>
</g>
</svg>
